<?xml version="1.0" encoding="UTF-8"?>
<svg width="64px" height="64px" viewBox="0 0 64 64" version="1.1" xmlns="http://www.w3.org/2000/svg" xmlns:xlink="http://www.w3.org/1999/xlink">
    <title>Group 3</title>
    <defs>
        <radialGradient cx="19.5330148%" cy="3.72687314%" fx="19.5330148%" fy="3.72687314%" r="124.124549%" gradientTransform="translate(0.195330,0.037269),scale(1.000000,0.756410),rotate(55.965417),translate(-0.195330,-0.037269)" id="radialGradient-1">
            <stop stop-color="#0090FF" offset="0%"></stop>
            <stop stop-color="#66C6B0" offset="57.1463136%"></stop>
            <stop stop-color="#FFA293" offset="100%"></stop>
        </radialGradient>
    </defs>
    <g id="Page-1" stroke="none" stroke-width="1" fill="none" fill-rule="evenodd">
        <g id="Group-3">
            <rect id="Rectangle-Copy" fill="#FAFAFA" x="0" y="0" width="64" height="64" rx="8"></rect>
            <path d="M43,13 C44.9329966,13 46.5,14.5670034 46.5,16.5 C46.5,18.4329966 44.9329966,20 43,20 L38.5,20 C34.9166667,20 34,20.6875 34,22.5 L34,25.651 L34.3605559,25.5770363 C36.1427241,25.2272142 37.997145,25.0365428 39.9208222,25.0047663 L40.5,25 L43,25 C44.9329966,25 46.5,26.5670034 46.5,28.5 C46.5,30.4329966 44.9329966,32 43,32 L40.5,32 L40,32.005 C33.7315839,32 27.9759344,34.5438024 25.485222,38.0823659 C24.4721009,39.4225509 24,40.8781356 24,42.5 C24,44.693767 24.2551942,45 25.5,45 C26.4655943,45 27,44.1449509 27,40.5 L27.0002644,38.1865283 C28.6239223,36.1379628 31.2432776,34.882257 34.0005642,34.1328511 L34,40.5 C34,47.4046871 31.2935924,51.8500173 25.7826356,51.9962771 L25.5,52 C20.0781391,52 17,48.306233 17,42.5 C17,37.2598405 19.6329836,32.8715344 24.5585493,29.587824 C25.2991354,29.0940999 26.0592829,28.6402914 26.8386171,28.2263665 L27,28.142 L27,22.5 C27,16.4139344 31.2730449,13.1093792 38.153797,13.0026687 L38.5,13 L43,13 Z" id="Combined-Shape-Copy" fill="url(#radialGradient-1)" fill-rule="nonzero"></path>
        </g>
    </g>
</svg>