<?xml version="1.0" encoding="UTF-8"?>
<svg width="225px" height="39px" viewBox="0 0 225 39" version="1.1" xmlns="http://www.w3.org/2000/svg" xmlns:xlink="http://www.w3.org/1999/xlink">
    <title>Group 5</title>
    <defs>
        <radialGradient cx="19.5330148%" cy="3.72687314%" fx="19.5330148%" fy="3.72687314%" r="124.124549%" gradientTransform="translate(0.195330,0.037269),scale(1.000000,0.756410),rotate(55.965417),translate(-0.195330,-0.037269)" id="radialGradient-1">
            <stop stop-color="#0090FF" offset="0%"></stop>
            <stop stop-color="#66C6B0" offset="57.1463136%"></stop>
            <stop stop-color="#FFA293" offset="100%"></stop>
        </radialGradient>
    </defs>
    <g id="Page-1" stroke="none" stroke-width="1" fill="none" fill-rule="evenodd">
        <g id="Group-5" fill-rule="nonzero">
            <g id="Group-2-Copy-2" fill="url(#radialGradient-1)">
                <path d="M26,0 C27.9329966,-3.55085719e-16 29.5,1.56700338 29.5,3.5 C29.5,5.43299662 27.9329966,7 26,7 L21.5,7 C17.9166667,7 17,7.6875 17,9.5 L17,12.651 L17.3605559,12.5770363 C19.1427241,12.2272142 20.997145,12.0365428 22.9208222,12.0047663 L23.5,12 L26,12 C27.9329966,12 29.5,13.5670034 29.5,15.5 C29.5,17.4329966 27.9329966,19 26,19 L23.5,19 L23,19.005 C16.7315839,19 10.9759344,21.5438024 8.48522202,25.0823659 C7.47210092,26.4225509 7,27.8781356 7,29.5 C7,31.693767 7.25519419,32 8.5,32 C9.46559434,32 10,31.1449509 10,27.5 L10.0002644,25.1865283 C11.6239223,23.1379628 14.2432776,21.882257 17.0005642,21.1328511 L17,27.5 C17,34.4046871 14.2935924,38.8500173 8.78263564,38.9962771 L8.5,39 C3.07813914,39 0,35.306233 0,29.5 C0,24.2598405 2.63298363,19.8715344 7.55854931,16.587824 C8.29913542,16.0940999 9.05928286,15.6402914 9.83861709,15.2263665 L10,15.142 L10,9.5 C10,3.41393443 14.2730449,0.109379199 21.153797,0.00266872558 L21.5,0 L26,0 Z" id="Combined-Shape-Copy-2"></path>
            </g>
            <g id="Feedback-Catcher-Copy-3" transform="translate(49.000000, 11.000000)" fill="#282828">
                <path d="M9.03254221,10.0404884 L2.72375826,10.0404884 L2.72375826,16.781491 L0,16.781491 L0,3.32386336 C-1.65694993e-16,1.97086106 1.09682507,0.87403599 2.44982737,0.87403599 L9.9584047,0.87403599 L9.9584047,0.87403599 L9.9584047,3.10282776 L3.94867194,3.10282776 C3.27217079,3.10282776 2.72375826,3.6512403 2.72375826,4.32774145 L2.72375826,7.83354756 L2.72375826,7.83354756 L9.03254221,7.83354756 L9.03254221,10.0404884 Z" id="Path"></path>
                <path d="M16.7624174,17 C15.1044776,17 13.7605416,16.4701157 12.7306092,15.410347 C11.7006769,14.3505784 11.1857108,12.9393745 11.1857108,11.1767352 L11.1857108,10.8489717 C11.1857108,9.66902314 11.4099992,8.61471722 11.858576,7.68605398 C12.3071528,6.75739075 12.9369546,6.03449015 13.7479814,5.51735219 C14.5590082,5.00021422 15.463339,4.74164524 16.4609738,4.74164524 C18.0471413,4.74164524 19.2726531,5.25514139 20.1375092,6.28213368 C21.0023652,7.30912596 21.4347932,8.7622108 21.4347932,10.6413882 C21.4347932,11.2327162 20.9554272,11.7120823 20.3640992,11.7120823 L13.8233423,11.7120823 L13.8233423,11.7120823 C13.9022918,12.6880891 14.2234728,13.4601542 14.7868852,14.0282776 C15.3502977,14.596401 16.059049,14.8804627 16.9131392,14.8804627 C18.1117364,14.8804627 19.0878395,14.3888175 19.8414485,13.405527 L21.2517739,14.7712082 C20.7852541,15.4777207 20.1626295,16.0258141 19.3839002,16.4154884 C18.6051709,16.8051628 17.7313433,17 16.7624174,17 Z M16.450208,6.87210797 C15.7324851,6.87210797 15.1529239,7.12703513 14.7115243,7.63688946 C14.2701248,8.14674379 13.9884186,8.85689803 13.8664057,9.76735219 L18.8509909,9.76735219 L18.8509909,9.57069409 C18.7935731,8.68209083 18.5603132,8.01017566 18.1512112,7.55494859 C17.7421091,7.09972151 17.1751081,6.87210797 16.450208,6.87210797 Z" id="Shape"></path>
                <path d="M28.5940788,17 C26.936139,17 25.5922029,16.4701157 24.5622706,15.410347 C23.5323383,14.3505784 23.0173722,12.9393745 23.0173722,11.1767352 L23.0173722,10.8489717 C23.0173722,9.66902314 23.2416605,8.61471722 23.6902373,7.68605398 C24.1388141,6.75739075 24.7686159,6.03449015 25.5796428,5.51735219 C26.3906696,5.00021422 27.2950004,4.74164524 28.2926352,4.74164524 C29.8788027,4.74164524 31.1043145,5.25514139 31.9691705,6.28213368 C32.8340266,7.30912596 33.2664546,8.7622108 33.2664546,10.6413882 C33.2664546,11.2327162 32.7870885,11.7120823 32.1957605,11.7120823 L25.6550037,11.7120823 L25.6550037,11.7120823 C25.7339532,12.6880891 26.0551342,13.4601542 26.6185466,14.0282776 C27.1819591,14.596401 27.8907104,14.8804627 28.7448006,14.8804627 C29.9433978,14.8804627 30.9195009,14.3888175 31.6731099,13.405527 L33.0834353,14.7712082 C32.6169154,15.4777207 31.9942908,16.0258141 31.2155615,16.4154884 C30.4368322,16.8051628 29.5630046,17 28.5940788,17 Z M28.2818693,6.87210797 C27.5641465,6.87210797 26.9845853,7.12703513 26.5431857,7.63688946 C26.1017862,8.14674379 25.8200799,8.85689803 25.698067,9.76735219 L30.6826523,9.76735219 L30.6826523,9.57069409 C30.6252345,8.68209083 30.3919746,8.01017566 29.9828725,7.55494859 C29.5737705,7.09972151 29.0067694,6.87210797 28.2818693,6.87210797 Z" id="Shape"></path>
                <path d="M34.8059701,10.783419 C34.8059701,8.96251071 35.2222494,7.50032134 36.0548079,6.3968509 C36.8873664,5.29338046 38.0034255,4.74164524 39.4029851,4.74164524 C40.6374684,4.74164524 41.6351032,5.17866324 42.3958894,6.05269923 L42.3958894,0 L45.0119892,0 L45.0119892,16.781491 L42.6435038,16.781491 L42.5143137,15.5578406 C41.7319958,16.5192802 40.687709,17 39.3814534,17 C38.01778,17 36.9142811,16.4428021 36.0709567,15.3284062 C35.2276323,14.2140103 34.8059701,12.6990146 34.8059701,10.783419 Z M37.42207,11.0128535 C37.42207,12.214653 37.649947,13.1524207 38.105701,13.8261568 C38.561455,14.4998929 39.2091999,14.8367609 40.0489356,14.8367609 C41.1183427,14.8367609 41.9006606,14.3523993 42.3958894,13.3836761 L42.3958894,8.33611825 C41.9150151,7.38924593 41.1398744,6.91580977 40.0704673,6.91580977 C39.2235544,6.91580977 38.5704266,7.25631962 38.1110839,7.93733933 C37.6517413,8.61835904 37.42207,9.64353042 37.42207,11.0128535 Z" id="Shape"></path>
                <path d="M57.9632983,10.9910026 C57.9632983,12.8264781 57.5595792,14.2868466 56.7521409,15.372108 C55.9447027,16.4573693 54.8340266,17 53.4201126,17 C52.0564391,17 50.9942093,16.5010711 50.233423,15.5032134 L50.1042329,16.781491 L47.7357475,16.781491 L47.7357475,0 L50.3518473,0 L50.3518473,6.09640103 C51.1054563,5.19323051 52.1210342,4.74164524 53.3985809,4.74164524 C54.8196721,4.74164524 55.9357312,5.27699229 56.746758,6.34768638 C57.5577848,7.41838046 57.9632983,8.9151671 57.9632983,10.8380463 L57.9632983,10.9910026 Z M55.3471984,10.7615681 C55.3471984,9.47964867 55.1247043,8.51820908 54.6797162,7.87724936 C54.234728,7.23628963 53.5887774,6.91580977 52.7418644,6.91580977 C51.6078623,6.91580977 50.81119,7.41838046 50.3518473,8.42352185 L50.3518473,13.2962725 C50.8183672,14.3232648 51.6222168,14.8367609 52.7633961,14.8367609 C53.5816002,14.8367609 54.2131963,14.5272065 54.6581845,13.9080977 C55.1031727,13.2889889 55.332844,12.353042 55.3471984,11.1002571 L55.3471984,10.7615681 Z" id="Shape"></path>
                <path d="M67.1142647,16.781491 C66.9994291,16.5556984 66.8989479,16.1878749 66.8128211,15.6780206 C65.9802626,16.5593402 64.9610962,17 63.7553218,17 C62.5854335,17 61.6308621,16.6613111 60.8916075,15.9839332 C60.152353,15.3065553 59.7827257,14.4689374 59.7827257,13.4710797 C59.7827257,12.2110111 60.2438627,11.2441088 61.1661365,10.5703728 C62.0884104,9.89663668 63.4072262,9.55976864 65.1225838,9.55976864 L66.7266944,9.55976864 L66.7266944,8.7840617 C66.7266944,8.1722365 66.5580295,7.68241217 66.2206998,7.31458869 C65.88337,6.94676521 65.3701982,6.76285347 64.6811842,6.76285347 C64.0854743,6.76285347 63.5974227,6.91398886 63.2170296,7.21625964 C62.8366365,7.51853042 62.6464399,7.90274207 62.6464399,8.3688946 L60.0303401,8.3688946 C60.0303401,7.72065124 60.2420683,7.11428877 60.6655248,6.5498072 C61.0889813,5.98532562 61.6649539,5.5428449 62.3934426,5.22236504 C63.1219313,4.90188518 63.9347525,4.74164524 64.831906,4.74164524 C66.1955795,4.74164524 67.2829296,5.08943873 68.0939564,5.78502571 C68.9049833,6.48061268 69.3212625,7.45844045 69.3427942,8.718509 L69.3427942,14.0501285 C69.3427942,15.113539 69.4899274,15.9620823 69.7841938,16.5957584 C69.7841938,16.6983357 69.7010384,16.781491 69.5984611,16.781491 L67.1142647,16.781491 L67.1142647,16.781491 Z M64.2397847,14.8695373 C64.7565451,14.8695373 65.2428024,14.7420737 65.6985564,14.4871465 C66.1543104,14.2322194 66.4970231,13.8898886 66.7266944,13.4601542 L66.7266944,11.2313625 L65.316369,11.2313625 C64.3474431,11.2313625 63.6189544,11.4025278 63.1309029,11.7448586 C62.6428513,12.0871894 62.3988255,12.571551 62.3988255,13.1979434 C62.3988255,13.7077978 62.5656961,14.1138603 62.8994372,14.4161311 C63.2331784,14.7184019 63.6799609,14.8695373 64.2397847,14.8695373 Z" id="Shape"></path>
                <path d="M76.8681184,14.8804627 C77.5212462,14.8804627 78.063127,14.6874464 78.4937607,14.3014139 C78.9243944,13.9153813 79.1540657,13.4383033 79.1827747,12.8701799 L81.6481527,12.8701799 C81.6194438,13.6058269 81.3933611,14.2923093 80.9699046,14.9296272 C80.5464481,15.5669452 79.9722698,16.0713368 79.2473697,16.4428021 C78.5224696,16.8142674 77.7401517,17 76.900416,17 C75.2711851,17 73.9792839,16.464653 73.0247125,15.3939589 C72.0701411,14.3232648 71.5928554,12.8446872 71.5928554,10.9582262 L71.5928554,10.68509 C71.5928554,8.88603256 72.0665525,7.44569409 73.0139467,6.36407455 C73.9613408,5.28245501 75.253242,4.74164524 76.8896501,4.74164524 C78.2748552,4.74164524 79.4034744,5.15134961 80.2755077,5.97075835 C81.147541,6.7901671 81.6050893,7.86632391 81.6481527,9.19922879 L79.1827747,9.19922879 C79.1540657,8.5218509 78.9261887,7.96465296 78.4991436,7.52763496 C78.0720985,7.09061697 77.5284235,6.87210797 76.8681184,6.87210797 C76.0212054,6.87210797 75.3680776,7.18348329 74.908735,7.80623393 C74.4493924,8.42898458 74.2161325,9.37403599 74.2089552,10.6413882 L74.2089552,11.0674807 C74.2089552,12.3494002 74.4368322,13.305377 74.8925862,13.9354113 C75.3483403,14.5654456 76.006851,14.8804627 76.8681184,14.8804627 Z" id="Path"></path>
                <path d="M87.4078786,11.7120823 L86.2451676,12.9248072 L86.2451676,16.781491 L83.6290678,16.781491 L83.6290678,0 L86.2451676,0 L86.2451676,9.67994859 L87.0633717,8.64203085 L90.2823587,4.96015424 L90.719789,4.96015424 C91.3962902,4.96015424 91.9447027,5.50856678 91.9447027,6.18506792 C91.9447027,6.48256485 91.8364341,6.76989419 91.6401096,6.99341407 L89.098116,9.88753213 L89.098116,9.88753213 L93.8889161,16.781491 L90.8637142,16.781491 L87.4078786,11.7120823 Z" id="Path"></path>
                <path d="M112.8368,11.6028278 C112.678901,13.2999143 112.061659,14.6237147 110.985075,15.5742288 C109.90849,16.5247429 108.476633,17 106.689503,17 C105.440666,17 104.340755,16.6995501 103.389772,16.0986504 C102.43879,15.4977506 101.704918,14.6437446 101.188158,13.5366324 C100.671397,12.4295201 100.402251,11.1439589 100.380719,9.67994859 L100.380719,8.1940874 C100.380719,6.69365895 100.642688,5.37167952 101.166626,4.2281491 C101.690564,3.08461868 102.442378,2.20329906 103.42207,1.58419023 C104.401762,0.965081405 105.533969,0.655526992 106.818693,0.655526992 C108.548406,0.655526992 109.940788,1.13260497 110.99584,2.08676093 C112.050893,3.04091688 112.664546,4.38838903 112.8368,6.12917738 L110.123807,6.12917738 C109.994617,4.98564696 109.666259,4.16077549 109.138733,3.65456298 C108.611206,3.14835047 107.83786,2.89524422 106.818693,2.89524422 C105.634451,2.89524422 104.724737,3.33408312 104.089552,4.21176093 C103.454368,5.08943873 103.129598,6.37682091 103.115243,8.07390746 L103.115243,9.48329049 C103.115243,11.2022279 103.418481,12.5132819 104.024957,13.4164524 C104.631433,14.319623 105.519615,14.7712082 106.689503,14.7712082 C107.75891,14.7712082 108.56276,14.5272065 109.101052,14.0392031 C109.639344,13.5511997 109.980263,12.7390746 110.123807,11.6028278 L112.8368,11.6028278 Z" id="Path"></path>
                <path d="M121.977,16.781491 C121.862165,16.5556984 121.761683,16.1878749 121.675557,15.6780206 C120.842998,16.5593402 119.823832,17 118.618057,17 C117.448169,17 116.493598,16.6613111 115.754343,15.9839332 C115.015088,15.3065553 114.645461,14.4689374 114.645461,13.4710797 C114.645461,12.2110111 115.106598,11.2441088 116.028872,10.5703728 C116.951146,9.89663668 118.269962,9.55976864 119.985319,9.55976864 L121.58943,9.55976864 L121.58943,8.7840617 C121.58943,8.1722365 121.420765,7.68241217 121.083435,7.31458869 C120.746106,6.94676521 120.232934,6.76285347 119.54392,6.76285347 C118.94821,6.76285347 118.460158,6.91398886 118.079765,7.21625964 C117.699372,7.51853042 117.509175,7.90274207 117.509175,8.3688946 L114.893076,8.3688946 C114.893076,7.72065124 115.104804,7.11428877 115.52826,6.5498072 C115.951717,5.98532562 116.527689,5.5428449 117.256178,5.22236504 C117.984667,4.90188518 118.797488,4.74164524 119.694642,4.74164524 C121.058315,4.74164524 122.145665,5.08943873 122.956692,5.78502571 C123.767719,6.48061268 124.183998,7.45844045 124.20553,8.718509 L124.20553,14.0501285 C124.20553,15.113539 124.352663,15.9620823 124.646929,16.5957584 C124.646929,16.6983357 124.563774,16.781491 124.461197,16.781491 L121.977,16.781491 L121.977,16.781491 Z M119.10252,14.8695373 C119.619281,14.8695373 120.105538,14.7420737 120.561292,14.4871465 C121.017046,14.2322194 121.359759,13.8898886 121.58943,13.4601542 L121.58943,11.2313625 L120.179104,11.2313625 C119.210179,11.2313625 118.48169,11.4025278 117.993638,11.7448586 C117.505587,12.0871894 117.261561,12.571551 117.261561,13.1979434 C117.261561,13.7077978 117.428432,14.1138603 117.762173,14.4161311 C118.095914,14.7184019 118.542696,14.8695373 119.10252,14.8695373 Z" id="Shape"></path>
                <path d="M130.223636,2.08676093 L130.223636,4.96015424 L132.279912,4.96015424 L132.279912,6.92673522 L130.223636,6.92673522 L130.223636,13.5257069 C130.223636,13.9772922 130.311557,14.3032348 130.487399,14.5035347 C130.663241,14.7038346 130.977245,14.8039846 131.42941,14.8039846 C131.730854,14.8039846 132.035886,14.7675664 132.344507,14.6947301 L132.344507,16.7487147 C131.748797,16.9162382 131.174619,17 130.621972,17 C128.612348,17 127.607536,15.8746787 127.607536,13.624036 L127.607536,6.92673522 L125.691216,6.92673522 L125.691216,4.96015424 L127.607536,4.96015424 L127.607536,2.08676093 L130.223636,2.08676093 Z" id="Path"></path>
                <path d="M139.062393,14.8804627 C139.715521,14.8804627 140.257402,14.6874464 140.688035,14.3014139 C141.118669,13.9153813 141.34834,13.4383033 141.377049,12.8701799 L143.842427,12.8701799 C143.813718,13.6058269 143.587636,14.2923093 143.164179,14.9296272 C142.740723,15.5669452 142.166544,16.0713368 141.441644,16.4428021 C140.716744,16.8142674 139.934426,17 139.09469,17 C137.46546,17 136.173558,16.464653 135.218987,15.3939589 C134.264416,14.3232648 133.78713,12.8446872 133.78713,10.9582262 L133.78713,10.68509 C133.78713,8.88603256 134.260827,7.44569409 135.208221,6.36407455 C136.155615,5.28245501 137.447517,4.74164524 139.083925,4.74164524 C140.46913,4.74164524 141.597749,5.15134961 142.469782,5.97075835 C143.341816,6.7901671 143.799364,7.86632391 143.842427,9.19922879 L141.377049,9.19922879 C141.34834,8.5218509 141.120463,7.96465296 140.693418,7.52763496 C140.266373,7.09061697 139.722698,6.87210797 139.062393,6.87210797 C138.21548,6.87210797 137.562352,7.18348329 137.10301,7.80623393 C136.643667,8.42898458 136.410407,9.37403599 136.40323,10.6413882 L136.40323,11.0674807 C136.40323,12.3494002 136.631107,13.305377 137.086861,13.9354113 C137.542615,14.5654456 138.201126,14.8804627 139.062393,14.8804627 Z" id="Path"></path>
                <path d="M148.396379,6.24935733 C149.250469,5.24421594 150.330642,4.74164524 151.636897,4.74164524 C154.120219,4.74164524 155.379822,6.18016281 155.415708,9.05719794 L155.415708,16.781491 L152.799609,16.781491 L152.799609,9.15552699 C152.799609,8.33976007 152.625561,7.76253213 152.277465,7.42384319 C151.92937,7.08515424 151.417992,6.91580977 150.743333,6.91580977 C149.695457,6.91580977 148.913139,7.38924593 148.396379,8.33611825 L148.396379,16.781491 L145.780279,16.781491 L145.780279,0 L148.396379,0 L148.396379,6.24935733 Z" id="Path"></path>
                <path d="M163.188647,17 C161.530707,17 160.186771,16.4701157 159.156839,15.410347 C158.126906,14.3505784 157.61194,12.9393745 157.61194,11.1767352 L157.61194,10.8489717 C157.61194,9.66902314 157.836229,8.61471722 158.284805,7.68605398 C158.733382,6.75739075 159.363184,6.03449015 160.174211,5.51735219 C160.985238,5.00021422 161.889569,4.74164524 162.887203,4.74164524 C164.473371,4.74164524 165.698883,5.25514139 166.563739,6.28213368 C167.428595,7.30912596 167.861023,8.7622108 167.861023,10.6413882 C167.861023,11.2327162 167.381657,11.7120823 166.790329,11.7120823 L160.249572,11.7120823 L160.249572,11.7120823 C160.328521,12.6880891 160.649702,13.4601542 161.213115,14.0282776 C161.776527,14.596401 162.485279,14.8804627 163.339369,14.8804627 C164.537966,14.8804627 165.514069,14.3888175 166.267678,13.405527 L167.678003,14.7712082 C167.211484,15.4777207 166.588859,16.0258141 165.81013,16.4154884 C165.0314,16.8051628 164.157573,17 163.188647,17 Z M162.876437,6.87210797 C162.158715,6.87210797 161.579153,7.12703513 161.137754,7.63688946 C160.696354,8.14674379 160.414648,8.85689803 160.292635,9.76735219 L165.27722,9.76735219 L165.27722,9.57069409 C165.219803,8.68209083 164.986543,8.01017566 164.577441,7.55494859 C164.168339,7.09972151 163.601338,6.87210797 162.876437,6.87210797 Z" id="Shape"></path>
                <path d="M175.989234,7.38560411 C175.644727,7.32733505 175.289454,7.29820051 174.923416,7.29820051 C173.724819,7.29820051 172.91738,7.76435304 172.501101,8.6966581 L172.501101,16.781491 L169.885001,16.781491 L169.885001,4.96015424 L172.382677,4.96015424 L172.447272,6.28213368 C173.078868,5.25514139 173.95449,4.74164524 175.074138,4.74164524 C175.447353,4.74164524 175.755974,4.79263068 176,4.89460154 L175.989234,7.38560411 Z" id="Path"></path>
            </g>
        </g>
    </g>
</svg>