<?xml version="1.0" encoding="UTF-8"?>
<svg width="276px" height="64px" viewBox="0 0 276 64" version="1.1" xmlns="http://www.w3.org/2000/svg" xmlns:xlink="http://www.w3.org/1999/xlink">
    <title>Group 4</title>
    <defs>
        <radialGradient cx="19.5330148%" cy="3.72687314%" fx="19.5330148%" fy="3.72687314%" r="124.124549%" gradientTransform="translate(0.195330,0.037269),scale(1.000000,0.756410),rotate(55.965417),translate(-0.195330,-0.037269)" id="radialGradient-1">
            <stop stop-color="#0090FF" offset="0%"></stop>
            <stop stop-color="#66C6B0" offset="57.1463136%"></stop>
            <stop stop-color="#FFA293" offset="100%"></stop>
        </radialGradient>
    </defs>
    <g id="Page-1" stroke="none" stroke-width="1" fill="none" fill-rule="evenodd">
        <g id="Group-4">
            <g id="Group">
                <rect id="Rectangle-Copy-3" fill-opacity="0" fill="#FAFAFA" x="0" y="0" width="64" height="64" rx="8"></rect>
                <path d="M43,13 C44.9329966,13 46.5,14.5670034 46.5,16.5 C46.5,18.4329966 44.9329966,20 43,20 L38.5,20 C34.9166667,20 34,20.6875 34,22.5 L34,25.651 L34.3605559,25.5770363 C36.1427241,25.2272142 37.997145,25.0365428 39.9208222,25.0047663 L40.5,25 L43,25 C44.9329966,25 46.5,26.5670034 46.5,28.5 C46.5,30.4329966 44.9329966,32 43,32 L40.5,32 L40,32.005 C33.7315839,32 27.9759344,34.5438024 25.485222,38.0823659 C24.4721009,39.4225509 24,40.8781356 24,42.5 C24,44.693767 24.2551942,45 25.5,45 C26.4655943,45 27,44.1449509 27,40.5 L27.0002644,38.1865283 C28.6239223,36.1379628 31.2432776,34.882257 34.0005642,34.1328511 L34,40.5 C34,47.4046871 31.2935924,51.8500173 25.7826356,51.9962771 L25.5,52 C20.0781391,52 17,48.306233 17,42.5 C17,37.2598405 19.6329836,32.8715344 24.5585493,29.587824 C25.2991354,29.0940999 26.0592829,28.6402914 26.8386171,28.2263665 L27,28.142 L27,22.5 C27,16.4139344 31.2730449,13.1093792 38.153797,13.0026687 L38.5,13 L43,13 Z" id="Combined-Shape-Copy-3" fill="url(#radialGradient-1)" fill-rule="nonzero"></path>
            </g>
            <g id="Feedback-Catcher-Copy" transform="translate(66.000000, 22.000000)" fill="#000000" fill-rule="nonzero">
                <path d="M10.8843243,11.948489 L3.28216216,11.948489 L3.28216216,20 L0,20 L0,3 C-1.3527075e-16,1.8954305 0.8954305,1 2,1 L12,1 L12,1 L12,3.66208791 L4.28216216,3.66208791 C3.72987741,3.66208791 3.28216216,4.10980316 3.28216216,4.66208791 L3.28216216,9.3125 L3.28216216,9.3125 L10.8843243,9.3125 L10.8843243,11.948489 Z" id="Path"></path>
                <path d="M20.5294118,20 C18.5882353,20 17.0147059,19.3948307 15.8088235,18.184492 C14.6029412,16.9741533 14,15.362448 14,13.3493761 L14,12.9750446 C14,11.627451 14.262605,10.4233512 14.7878151,9.3627451 C15.3130252,8.30213904 16.0504202,7.47653001 17,6.885918 C17.9495798,6.295306 19.0084034,6 20.1764706,6 C22.0336134,6 23.4684874,6.58645276 24.4810924,7.75935829 C25.4936975,8.93226381 26,10.5918004 26,12.7379679 C26,13.4133108 25.4525264,13.9607843 24.7771836,13.9607843 L17.0882353,13.9607843 L17.0882353,13.9607843 C17.1806723,15.0754605 17.5567227,15.9572193 18.2163866,16.6060606 C18.8760504,17.254902 19.7058824,17.5793226 20.7058824,17.5793226 C22.1092437,17.5793226 23.2521008,17.0178253 24.1344538,15.8948307 L25.7857143,17.4545455 C25.2394958,18.2614379 24.5105042,18.8874034 23.5987395,19.3324421 C22.6869748,19.7774807 21.6638655,20 20.5294118,20 Z M20.1638655,8.43315508 C19.3235294,8.43315508 18.644958,8.72430184 18.1281513,9.30659537 C17.6113445,9.88888889 17.2815126,10.6999406 17.1386555,11.7397504 L22.9747899,11.7397504 L22.9747899,11.5151515 C22.907563,10.5002971 22.6344538,9.73291741 22.1554622,9.21301248 C21.6764706,8.69310755 21.012605,8.43315508 20.1638655,8.43315508 Z" id="Shape"></path>
                <path d="M34.5294118,20 C32.5882353,20 31.0147059,19.3948307 29.8088235,18.184492 C28.6029412,16.9741533 28,15.362448 28,13.3493761 L28,12.9750446 C28,11.627451 28.262605,10.4233512 28.7878151,9.3627451 C29.3130252,8.30213904 30.0504202,7.47653001 31,6.885918 C31.9495798,6.295306 33.0084034,6 34.1764706,6 C36.0336134,6 37.4684874,6.58645276 38.4810924,7.75935829 C39.4936975,8.93226381 40,10.5918004 40,12.7379679 C40,13.4133108 39.4525264,13.9607843 38.7771836,13.9607843 L31.0882353,13.9607843 L31.0882353,13.9607843 C31.1806723,15.0754605 31.5567227,15.9572193 32.2163866,16.6060606 C32.8760504,17.254902 33.7058824,17.5793226 34.7058824,17.5793226 C36.1092437,17.5793226 37.2521008,17.0178253 38.1344538,15.8948307 L39.7857143,17.4545455 C39.2394958,18.2614379 38.5105042,18.8874034 37.5987395,19.3324421 C36.6869748,19.7774807 35.6638655,20 34.5294118,20 Z M34.1638655,8.43315508 C33.3235294,8.43315508 32.644958,8.72430184 32.1281513,9.30659537 C31.6113445,9.88888889 31.2815126,10.6999406 31.1386555,11.7397504 L36.9747899,11.7397504 L36.9747899,11.5151515 C36.907563,10.5002971 36.6344538,9.73291741 36.1554622,9.21301248 C35.6764706,8.69310755 35.012605,8.43315508 34.1638655,8.43315508 Z" id="Shape"></path>
                <path d="M42,12.6863753 C42,10.5441302 42.4894515,8.82390746 43.4683544,7.52570694 C44.4472574,6.22750643 45.7594937,5.57840617 47.4050633,5.57840617 C48.8565401,5.57840617 50.0295359,6.09254499 50.9240506,7.12082262 L50.9240506,0 L54,0 L54,19.7429306 L51.2151899,19.7429306 L51.0632911,18.3033419 C50.1434599,19.4344473 48.9156118,20 47.3797468,20 C45.7763713,20 44.478903,19.344473 43.4873418,18.033419 C42.4957806,16.722365 42,14.9400171 42,12.6863753 Z M45.0759494,12.9562982 C45.0759494,14.3701799 45.3438819,15.4734362 45.8797468,16.2660668 C46.4156118,17.0586975 47.1772152,17.4550129 48.164557,17.4550129 C49.4219409,17.4550129 50.3417722,16.8851757 50.9240506,15.7455013 L50.9240506,9.80719794 C50.3586498,8.69323051 49.4472574,8.13624679 48.1898734,8.13624679 C47.1940928,8.13624679 46.4261603,8.53684662 45.8860759,9.33804627 C45.3459916,10.1392459 45.0759494,11.3453299 45.0759494,12.9562982 Z" id="Shape"></path>
                <path d="M69,12.9305913 C69,15.0899743 68.5263158,16.8080548 67.5789474,18.0848329 C66.6315789,19.361611 65.3284211,20 63.6694737,20 C62.0694737,20 60.8231579,19.4130249 59.9305263,18.2390746 L59.7789474,19.7429306 L57,19.7429306 L57,0 L60.0694737,0 L60.0694737,7.1722365 C60.9536842,6.10968295 62.1452632,5.57840617 63.6442105,5.57840617 C65.3115789,5.57840617 66.6210526,6.20822622 67.5726316,7.46786632 C68.5242105,8.72750643 69,10.4884319 69,12.7506427 L69,12.9305913 Z M65.9305263,12.6606684 C65.9305263,11.1525278 65.6694737,10.0214225 65.1473684,9.26735219 C64.6252632,8.51328192 63.8673684,8.13624679 62.8736842,8.13624679 C61.5431579,8.13624679 60.6084211,8.72750643 60.0694737,9.91002571 L60.0694737,15.6426735 C60.6168421,16.8508997 61.56,17.4550129 62.8989474,17.4550129 C63.8589474,17.4550129 64.6,17.0908312 65.1221053,16.3624679 C65.6442105,15.6341045 65.9136842,14.5329906 65.9305263,13.059126 L65.9305263,12.6606684 Z" id="Shape"></path>
                <path d="M79.7965554,19.7504456 C79.6587729,19.4925728 79.5382131,19.0724896 79.4348762,18.4901961 C78.4359526,19.496732 77.2131324,20 75.7664155,20 C74.3627557,20 73.2174381,19.6131907 72.3304629,18.8395722 C71.4434876,18.0659537 71,17.1093286 71,15.969697 C71,14.5306001 71.5532831,13.426322 72.6598493,12.6568627 C73.7664155,11.8874034 75.3487621,11.5026738 77.4068891,11.5026738 L79.3315393,11.5026738 L79.3315393,10.6167558 C79.3315393,9.91800357 79.1291712,9.35858586 78.7244349,8.93850267 C78.3196986,8.51841949 77.7039828,8.3083779 76.8772874,8.3083779 C76.1625404,8.3083779 75.5769645,8.48098633 75.1205597,8.82620321 C74.664155,9.17142008 74.4359526,9.61021985 74.4359526,10.1426025 L71.2970936,10.1426025 C71.2970936,9.40225787 71.5511302,8.7097445 72.0592034,8.06506239 C72.5672766,7.42038027 73.2583423,6.91503268 74.1324004,6.54901961 C75.0064586,6.18300654 75.9817008,6 77.058127,6 C78.6942949,6 79.9989236,6.39720737 80.9720129,7.1916221 C81.9451023,7.98603684 82.444564,9.10279263 82.4703983,10.5418895 L82.4703983,16.631016 C82.4703983,17.845514 82.6469322,18.8146168 83,19.5383244 C83,19.6554757 82.9050301,19.7504456 82.7878788,19.7504456 L79.7965554,19.7504456 L79.7965554,19.7504456 Z M76.3476857,17.5668449 C76.9677072,17.5668449 77.5511302,17.4212715 78.0979548,17.1301248 C78.6447793,16.838978 79.0559742,16.4480095 79.3315393,15.9572193 L79.3315393,13.4117647 L77.6393972,13.4117647 C76.4768568,13.4117647 75.6027987,13.607249 75.0172228,13.9982175 C74.4316469,14.389186 74.138859,14.9423648 74.138859,15.657754 C74.138859,16.2400475 74.3390743,16.7038027 74.7395048,17.0490196 C75.1399354,17.3942365 75.6759957,17.5668449 76.3476857,17.5668449 Z" id="Shape"></path>
                <path d="M92.2955032,17.5793226 C93.0749465,17.5793226 93.7216274,17.3588829 94.235546,16.9180036 C94.7494647,16.4771242 95.0235546,15.9322638 95.0578158,15.2834225 L98,15.2834225 C97.9657388,16.1235888 97.6959315,16.9076055 97.1905782,17.6354724 C96.6852248,18.3633393 96,18.9393939 95.1349036,19.3636364 C94.2698073,19.7878788 93.3361884,20 92.3340471,20 C90.3897216,20 88.8479657,19.3885918 87.7087794,18.1657754 C86.5695931,16.942959 86,15.2543078 86,13.0998217 L86,12.7878788 C86,10.7332145 86.5653105,9.08823529 87.6959315,7.85294118 C88.8265525,6.61764706 90.3683084,6 92.3211991,6 C93.9743041,6 95.3211991,6.46791444 96.3618844,7.40374332 C97.4025696,8.33957219 97.9486081,9.56862745 98,11.0909091 L95.0578158,11.0909091 C95.0235546,10.3172906 94.751606,9.68092692 94.24197,9.18181818 C93.732334,8.68270945 93.0835118,8.43315508 92.2955032,8.43315508 C91.2847966,8.43315508 90.5053533,8.78877005 89.9571734,9.5 C89.4089936,10.2112299 89.130621,11.2905526 89.1220557,12.7379679 L89.1220557,13.2245989 C89.1220557,14.6886512 89.3940043,15.7804516 89.9379015,16.5 C90.4817987,17.2195484 91.267666,17.5793226 92.2955032,17.5793226 Z" id="Path"></path>
                <path d="M104.419727,13.9583333 L103.059811,15.4036458 L103.059811,20 L100,20 L100,0 L103.059811,0 L103.059811,11.5364583 L104.016789,10.2994792 L107.781742,5.91145833 L109.276335,5.91145833 C109.82862,5.91145833 110.276335,6.35917358 110.276335,6.91145833 C110.276335,7.15112746 110.190257,7.38282549 110.033777,7.56436092 L106.396642,11.7838542 L106.396642,11.7838542 L112,20 L108.4617,20 L104.419727,13.9583333 Z" id="Path"></path>
                <path d="M135,13.7259358 C134.809853,15.6987522 134.066551,17.2376337 132.770095,18.3425802 C131.473639,19.4475267 129.749352,20 127.597234,20 C126.093345,20 124.768799,19.6507353 123.623596,18.9522059 C122.478392,18.2536765 121.594641,17.260918 120.972342,15.9739305 C120.350043,14.686943 120.025929,13.1925134 120,11.4906417 L120,9.76336898 C120,8.01916221 120.315471,6.4823975 120.946413,5.15307487 C121.577355,3.82375223 122.482714,2.79924242 123.662489,2.07954545 C124.842264,1.35984848 126.205704,1 127.752809,1 C129.835782,1 131.512532,1.55459002 132.78306,2.66377005 C134.053587,3.77295009 134.792567,5.33934938 135,7.36296791 L131.73293,7.36296791 C131.577355,6.03364528 131.181936,5.0747549 130.546672,4.48629679 C129.911409,3.89783868 128.980121,3.60360963 127.752809,3.60360963 C126.326707,3.60360963 125.231201,4.11374777 124.466292,5.13402406 C123.701383,6.15430036 123.310285,7.6508467 123.292999,9.6236631 L123.292999,11.2620321 C123.292999,13.2602496 123.658168,14.7843137 124.388505,15.8342246 C125.118842,16.8841355 126.188418,17.4090909 127.597234,17.4090909 C128.885048,17.4090909 129.853068,17.1254456 130.501296,16.5581551 C131.149525,15.9908645 131.560069,15.0467914 131.73293,13.7259358 L135,13.7259358 Z" id="Path"></path>
                <path d="M145.796555,19.7504456 C145.658773,19.4925728 145.538213,19.0724896 145.434876,18.4901961 C144.435953,19.496732 143.213132,20 141.766416,20 C140.362756,20 139.217438,19.6131907 138.330463,18.8395722 C137.443488,18.0659537 137,17.1093286 137,15.969697 C137,14.5306001 137.553283,13.426322 138.659849,12.6568627 C139.766416,11.8874034 141.348762,11.5026738 143.406889,11.5026738 L145.331539,11.5026738 L145.331539,10.6167558 C145.331539,9.91800357 145.129171,9.35858586 144.724435,8.93850267 C144.319699,8.51841949 143.703983,8.3083779 142.877287,8.3083779 C142.16254,8.3083779 141.576964,8.48098633 141.12056,8.82620321 C140.664155,9.17142008 140.435953,9.61021985 140.435953,10.1426025 L137.297094,10.1426025 C137.297094,9.40225787 137.55113,8.7097445 138.059203,8.06506239 C138.567277,7.42038027 139.258342,6.91503268 140.1324,6.54901961 C141.006459,6.18300654 141.981701,6 143.058127,6 C144.694295,6 145.998924,6.39720737 146.972013,7.1916221 C147.945102,7.98603684 148.444564,9.10279263 148.470398,10.5418895 L148.470398,16.631016 C148.470398,17.845514 148.646932,18.8146168 149,19.5383244 C149,19.6554757 148.90503,19.7504456 148.787879,19.7504456 L145.796555,19.7504456 L145.796555,19.7504456 Z M142.347686,17.5668449 C142.967707,17.5668449 143.55113,17.4212715 144.097955,17.1301248 C144.644779,16.838978 145.055974,16.4480095 145.331539,15.9572193 L145.331539,13.4117647 L143.639397,13.4117647 C142.476857,13.4117647 141.602799,13.607249 141.017223,13.9982175 C140.431647,14.389186 140.138859,14.9423648 140.138859,15.657754 C140.138859,16.2400475 140.339074,16.7038027 140.739505,17.0490196 C141.139935,17.3942365 141.675996,17.5668449 142.347686,17.5668449 Z" id="Shape"></path>
                <path d="M155.449838,3 L155.449838,6.46813187 L157.92233,6.46813187 L157.92233,8.84175824 L155.449838,8.84175824 L155.449838,16.8065934 C155.449838,17.3516484 155.555556,17.7450549 155.76699,17.9868132 C155.978425,18.2285714 156.355987,18.3494505 156.899676,18.3494505 C157.262136,18.3494505 157.62891,18.3054945 158,18.2175824 L158,20.6967033 C157.283711,20.8989011 156.593312,21 155.928803,21 C153.512406,21 152.304207,19.6417582 152.304207,16.9252747 L152.304207,8.84175824 L150,8.84175824 L150,6.46813187 L152.304207,6.46813187 L152.304207,3 L155.449838,3 Z" id="Path"></path>
                <path d="M166.295503,17.5793226 C167.074946,17.5793226 167.721627,17.3588829 168.235546,16.9180036 C168.749465,16.4771242 169.023555,15.9322638 169.057816,15.2834225 L172,15.2834225 C171.965739,16.1235888 171.695931,16.9076055 171.190578,17.6354724 C170.685225,18.3633393 170,18.9393939 169.134904,19.3636364 C168.269807,19.7878788 167.336188,20 166.334047,20 C164.389722,20 162.847966,19.3885918 161.708779,18.1657754 C160.569593,16.942959 160,15.2543078 160,13.0998217 L160,12.7878788 C160,10.7332145 160.56531,9.08823529 161.695931,7.85294118 C162.826552,6.61764706 164.368308,6 166.321199,6 C167.974304,6 169.321199,6.46791444 170.361884,7.40374332 C171.40257,8.33957219 171.948608,9.56862745 172,11.0909091 L169.057816,11.0909091 C169.023555,10.3172906 168.751606,9.68092692 168.24197,9.18181818 C167.732334,8.68270945 167.083512,8.43315508 166.295503,8.43315508 C165.284797,8.43315508 164.505353,8.78877005 163.957173,9.5 C163.408994,10.2112299 163.130621,11.2905526 163.122056,12.7379679 L163.122056,13.2245989 C163.122056,14.6886512 163.394004,15.7804516 163.937901,16.5 C164.481799,17.2195484 165.267666,17.5793226 166.295503,17.5793226 Z" id="Path"></path>
                <path d="M177.258101,7.44791667 C178.321788,6.25 179.667039,5.65104167 181.293855,5.65104167 C184.386592,5.65104167 185.955307,7.36545139 186,10.7942708 L186,20 L182.741899,20 L182.741899,10.9114583 C182.741899,9.93923611 182.52514,9.25130208 182.09162,8.84765625 C181.658101,8.44401042 181.021229,8.2421875 180.181006,8.2421875 C178.875978,8.2421875 177.901676,8.80642361 177.258101,9.93489583 L177.258101,20 L174,20 L174,0 L177.258101,0 L177.258101,7.44791667 Z" id="Path"></path>
                <path d="M194.529412,20 C192.588235,20 191.014706,19.3948307 189.808824,18.184492 C188.602941,16.9741533 188,15.362448 188,13.3493761 L188,12.9750446 C188,11.627451 188.262605,10.4233512 188.787815,9.3627451 C189.313025,8.30213904 190.05042,7.47653001 191,6.885918 C191.94958,6.295306 193.008403,6 194.176471,6 C196.033613,6 197.468487,6.58645276 198.481092,7.75935829 C199.493697,8.93226381 200,10.5918004 200,12.7379679 C200,13.4133108 199.452526,13.9607843 198.777184,13.9607843 L191.088235,13.9607843 L191.088235,13.9607843 C191.180672,15.0754605 191.556723,15.9572193 192.216387,16.6060606 C192.87605,17.254902 193.705882,17.5793226 194.705882,17.5793226 C196.109244,17.5793226 197.252101,17.0178253 198.134454,15.8948307 L199.785714,17.4545455 C199.239496,18.2614379 198.510504,18.8874034 197.598739,19.3324421 C196.686975,19.7774807 195.663866,20 194.529412,20 Z M194.163866,8.43315508 C193.323529,8.43315508 192.644958,8.72430184 192.128151,9.30659537 C191.611345,9.88888889 191.281513,10.6999406 191.138655,11.7397504 L196.97479,11.7397504 L196.97479,11.5151515 C196.907563,10.5002971 196.634454,9.73291741 196.155462,9.21301248 C195.676471,8.69310755 195.012605,8.43315508 194.163866,8.43315508 Z" id="Shape"></path>
                <path d="M209.987676,9.07441016 C209.59331,9.00665457 209.18662,8.97277677 208.767606,8.97277677 C207.39554,8.97277677 206.471244,9.51482154 205.994718,10.5989111 L205.994718,20 L203,20 L203,6.25408348 L205.859155,6.25408348 L205.933099,7.79128857 C206.656103,6.59709619 207.658451,6 208.940141,6 C209.367371,6 209.720657,6.05928615 210,6.17785844 L209.987676,9.07441016 Z" id="Path"></path>
            </g>
        </g>
    </g>
</svg>