<?xml version="1.0" encoding="UTF-8"?>
<svg width="1244px" height="284px" viewBox="0 0 1244 284" version="1.1" xmlns="http://www.w3.org/2000/svg" xmlns:xlink="http://www.w3.org/1999/xlink">
    <title>Group</title>
    <g id="Page-1" stroke="none" stroke-width="1" fill="none" fill-rule="evenodd" stroke-dasharray="21" stroke-linecap="round">
        <g id="fc_slide-copy" transform="translate(-578.000000, -398.000000)" stroke="#CFCFCF" stroke-width="4">
            <g id="Group" transform="translate(580.000000, 400.000000)">
                <path d="M200,0 L320,0 C342.09139,-4.05812251e-15 360,17.90861 360,40 C360,62.09139 342.09139,80 320,80 L200,80 C177.90861,80 160,62.09139 160,40 C160,17.90861 177.90861,4.05812251e-15 200,0 Z" id="Rectangle"></path>
                <path d="M40,100 L160,100 C182.09139,100 200,117.90861 200,140 C200,162.09139 182.09139,180 160,180 L40,180 C17.90861,180 2.705415e-15,162.09139 0,140 C-2.705415e-15,117.90861 17.90861,100 40,100 Z" id="Rectangle-Copy"></path>
                <path d="M260,100 L380,100 C402.09139,100 420,117.90861 420,140 C420,162.09139 402.09139,180 380,180 L260,180 C237.90861,180 220,162.09139 220,140 C220,117.90861 237.90861,100 260,100 Z" id="Rectangle-Copy-2"></path>
                <path d="M700,100 L820,100 C842.09139,100 860,117.90861 860,140 C860,162.09139 842.09139,180 820,180 L700,180 C677.90861,180 660,162.09139 660,140 C660,117.90861 677.90861,100 700,100 Z" id="Rectangle-Copy-3"></path>
                <path d="M840,200 L960,200 C982.09139,200 1000,217.90861 1000,240 C1000,262.09139 982.09139,280 960,280 L840,280 C817.90861,280 800,262.09139 800,240 C800,217.90861 817.90861,200 840,200 Z" id="Rectangle-Copy-5"></path>
                <path d="M480,100 L600,100 C622.09139,100 640,117.90861 640,140 C640,162.09139 622.09139,180 600,180 L480,180 C457.90861,180 440,162.09139 440,140 C440,117.90861 457.90861,100 480,100 Z" id="Rectangle-Copy-4"></path>
                <path d="M40,0 L100,0 C122.09139,-4.05812251e-15 140,17.90861 140,40 C140,62.09139 122.09139,80 100,80 L40,80 C17.90861,80 2.705415e-15,62.09139 0,40 C-2.705415e-15,17.90861 17.90861,4.05812251e-15 40,0 Z" id="Rectangle-Copy-8"></path>
                <path d="M1140,0 L1200,0 C1222.09139,-4.05812251e-15 1240,17.90861 1240,40 C1240,62.09139 1222.09139,80 1200,80 L1140,80 C1117.90861,80 1100,62.09139 1100,40 C1100,17.90861 1117.90861,4.05812251e-15 1140,0 Z" id="Rectangle-Copy-14"></path>
                <path d="M1080,100 L1140,100 C1162.09139,100 1180,117.90861 1180,140 C1180,162.09139 1162.09139,180 1140,180 L1080,180 C1057.90861,180 1040,162.09139 1040,140 C1040,117.90861 1057.90861,100 1080,100 Z" id="Rectangle-Copy-16"></path>
                <path d="M420,0 L480,0 C502.09139,-4.05812251e-15 520,17.90861 520,40 C520,62.09139 502.09139,80 480,80 L420,80 C397.90861,80 380,62.09139 380,40 C380,17.90861 397.90861,4.05812251e-15 420,0 Z" id="Rectangle-Copy-10"></path>
                <path d="M980,0 L1040,0 C1062.09139,-4.05812251e-15 1080,17.90861 1080,40 C1080,62.09139 1062.09139,80 1040,80 L980,80 C957.90861,80 940,62.09139 940,40 C940,17.90861 957.90861,4.05812251e-15 980,0 Z" id="Rectangle-Copy-13"></path>
                <path d="M920,100 L980,100 C1002.09139,100 1020,117.90861 1020,140 C1020,162.09139 1002.09139,180 980,180 L920,180 C897.90861,180 880,162.09139 880,140 C880,117.90861 897.90861,100 920,100 Z" id="Rectangle-Copy-15"></path>
                <path d="M40,200 L140,200 C162.09139,200 180,217.90861 180,240 C180,262.09139 162.09139,280 140,280 L40,280 C17.90861,280 2.705415e-15,262.09139 0,240 C-2.705415e-15,217.90861 17.90861,200 40,200 Z" id="Rectangle-Copy-9"></path>
                <path d="M240,200 L340,200 C362.09139,200 380,217.90861 380,240 C380,262.09139 362.09139,280 340,280 L240,280 C217.90861,280 200,262.09139 200,240 C200,217.90861 217.90861,200 240,200 Z" id="Rectangle-Copy-17"></path>
                <path d="M440,200 L540,200 C562.09139,200 580,217.90861 580,240 C580,262.09139 562.09139,280 540,280 L440,280 C417.90861,280 400,262.09139 400,240 C400,217.90861 417.90861,200 440,200 Z" id="Rectangle-Copy-18"></path>
                <path d="M640,200 L740,200 C762.09139,200 780,217.90861 780,240 C780,262.09139 762.09139,280 740,280 L640,280 C617.90861,280 600,262.09139 600,240 C600,217.90861 617.90861,200 640,200 Z" id="Rectangle-Copy-19"></path>
                <path d="M780,0 L880,0 C902.09139,-4.05812251e-15 920,17.90861 920,40 C920,62.09139 902.09139,80 880,80 L780,80 C757.90861,80 740,62.09139 740,40 C740,17.90861 757.90861,4.05812251e-15 780,0 Z" id="Rectangle-Copy-12"></path>
                <path d="M580,0 L680,0 C702.09139,-4.05812251e-15 720,17.90861 720,40 C720,62.09139 702.09139,80 680,80 L580,80 C557.90861,80 540,62.09139 540,40 C540,17.90861 557.90861,4.05812251e-15 580,0 Z" id="Rectangle-Copy-11"></path>
                <path d="M1060,200 L1160,200 C1182.09139,200 1200,217.90861 1200,240 C1200,262.09139 1182.09139,280 1160,280 L1060,280 C1037.90861,280 1020,262.09139 1020,240 C1020,217.90861 1037.90861,200 1060,200 Z" id="Rectangle-Copy-20"></path>
            </g>
        </g>
    </g>
</svg>